<svg xmlns="http://www.w3.org/2000/svg" xmlns:xlink="http://www.w3.org/1999/xlink" version="1.1" x="0px" y="0px" viewBox="0 0 1920 1080" enable-background="new 0 0 1920 1080" xml:space="preserve">
<g id="Background">
	<path opacity="0.11" fill="#2A94F4" d="M1536.73,1037.015c113.551-52.453,345.097-102.163,352.001-479.207   c6.904-377.044-503.982-772.049-885.996-416.3S499.57,488.414,425.112,453.991C194.983,347.598-141.005,610.58,135.15,877.773   S1423.18,1089.468,1536.73,1037.015z"/>
	<ellipse opacity="0.11" fill="#2A94F4" cx="971.303" cy="1021.107" rx="843.27" ry="59.512"/>
</g>
<g id="Folder_Back">
	<path fill="#FFBE55" d="M1674.264,666.037H523.501c-12.168,0-22.032-9.864-22.032-22.032V264.287   c0-12.168,9.864-22.032,22.032-22.032h1150.763c12.168,0,22.032,9.864,22.032,22.032v379.718   C1696.296,656.173,1686.431,666.037,1674.264,666.037z"/>
	<rect x="508.037" y="286.683" fill="#D3D3D3" width="1181.691" height="423.782"/>
	<rect x="519.077" y="370.415" opacity="0.73" fill="#F7F7F7" width="1159.61" height="423.782"/>
	<rect x="530.118" y="454.146" fill="#F7F7F7" width="1137.529" height="423.782"/>
</g>
<g id="Charcter">
	<g>
		<path fill="#FFBE55" d="M415.311,961.749c0,0,48.132-127.214,57.53-152.353c-8.587-82.905-74.087-154.09-74.087-154.09    s-16.723-25.395-35.587-22.423c-5.565,0.877-11.328,3.82-16.591,8.45c-4.562-24.429-20.793-43.71-61.889-41.305    c0,0-61.815,55.833-48.017,214.853c-0.099,30.677-54.918,202.994-54.918,202.994l82.308-3.037l-43.307-24.022    c0,0,66.24-126.875,81.668-156.988c15.429-30.113,29.617-103.031,29.617-103.031s1-2.363,2.486-6.389    c20.912,48.136,78.068,95.443,78.068,95.443l-30.279,167.865l75.726-2.492L415.311,961.749z"/>
		<path fill="#0E538C" d="M415.311,961.749c0,0-14.875,3.595-28.411,0.543l-4.586,25.424l75.726-2.492L415.311,961.749z"/>
		<path fill="#0E538C" d="M220.752,990.816c0,0-18.291,5.453-30.716,0.566c-4.977,16.094-8.284,26.493-8.284,26.493l82.308-3.037    L220.752,990.816z"/>
		<path fill="#0B4870" d="M464.472,498.853c0,0,31.196,34.247,56.737,75.927c25.54,41.678,94.109,81.219,94.109,81.219    s-4.269,25.307-11.815,23.564c-7.545-1.743-105.256-52.288-105.256-52.288s-53.323-42.872-60.301-68.014    C434.197,544.158,444.192,503.049,464.472,498.853z"/>
		<path fill="#FFE9E3" d="M615.318,655.999l40.25-8.074l-14.825,16.837l44.299,24.867c0,0-24.685,12.007-34.323,9.11    c-9.637-2.896-47.217-19.177-47.217-19.177S605.525,657.962,615.318,655.999z"/>
		<path fill="#0E538C" d="M343.706,476.605c9.222-13.616,26.255-19.579,42.009-14.86c27.152,8.132,70.457,22.973,78.782,37.024    c12.308,20.773-13.98,76.66-44.011,97.372c-14.823,11.533-21.848,59.539-21.848,59.539s-82.152,4.928-114.309-54.496    C290.926,589.389,317.518,515.269,343.706,476.605z"/>
		<path fill="#EFACA5" d="M426.354,455.013l-20.06,31.619c0,0-1.84,16.597,15.888,20.666c17.73,4.068,22.852-5.6,22.852-5.6    l5.602-41.326C450.636,460.371,434.878,452.226,426.354,455.013z"/>
		<path fill="#FAB9AF" d="M490.851,431c0,0-4.556,40.944-15.455,47.319c-10.897,6.376-29.315,3.849-56.414-18.33    c-7.074-9.793,9.187-44.193,14.735-49.197C470.028,378.037,487.77,416.064,490.851,431z"/>
		<path fill="#0B4870" d="M510.351,436.507c-16.859,0.944-37.43-3.982-49.44-14.677c-7.295-6.497-15.441-3.099-16.744,2.368    c-1.302,5.468,0.405,20.365-6.242,15.817c-6.647-4.55,1.909-14.057-5.911-13.412c-7.82,0.646-7.968,19.638-14.58,18.202    c-6.611-1.437-18.173-19.566-5.552-27.021c12.622-7.455,11.667-17.343,7.617-30.414c-4.049-13.07,18.42-25.513,28.263-13.618    c9.843,11.894,20.335,10.051,35.934,9.261c19.087-0.964,11.193,19.565,24.491,26.07c5.281,2.583,12.375,0.337,17.267,3.831    c11.299,8.068,1.893,21.189-8.423,22.875C514.897,436.138,512.658,436.378,510.351,436.507z"/>
	</g>
</g>
<g id="Arm_and_Folder_Front">
	<path fill="#FFBE55" d="M1235.134,524.952L1235.134,524.952c0,15.209-18.77,27.539-41.924,27.539H543.393   c-23.154,0-41.924,12.329-41.924,27.539v457.141h1194.827V524.952c0-15.209-18.77-27.539-41.924-27.539h-377.314   C1253.904,497.413,1235.134,509.743,1235.134,524.952z"/>
	<path fill="#EFACA5" d="M508.195,677.677l42.537,0.371l-18.239,13.704l31.831,39.95c0,0-25.67-0.397-32.434-1.283   c-6.763-0.887-33.068-27.767-34.963-35.796C495.031,686.596,497.745,677.585,508.195,677.677z"/>
	<path fill="#0E538C" d="M348.841,469.592c-2.895,2.343-4.253,6.096-3.787,9.791c2.477,19.632,12.841,90.735,35.904,118.004   c17.603,23.002,84.672,73.924,107.952,91.295c4.969,3.708,12.1,2.668,15.612-2.442c0.051-0.074,0.102-0.149,0.152-0.224   c2.799-4.143,2.328-9.683-1.001-13.415c-15.164-17-60.667-67.911-71.607-80.151c-1.546-1.73-2.502-3.886-2.745-6.194   c-1.534-14.542-12.706-68.773-16.973-92.956C405.44,454.146,365.773,455.887,348.841,469.592z"/>
</g>
</svg>